<svg xmlns="http://www.w3.org/2000/svg" xmlns:xlink="http://www.w3.org/1999/xlink" zoomAndPan="magnify" viewBox="0 29 208 69" preserveAspectRatio="xMidYMid meet" version="1.2"><defs><clipPath id="142db80526"><path d="M 1.339844 29.445312 L 64.886719 29.445312 L 64.886719 95.726562 L 1.339844 95.726562 Z M 1.339844 29.445312 "/></clipPath><clipPath id="2dfd432d67"><path d="M 62.972656 51.539062 C 64.128906 54.921875 64.886719 58.792969 64.886719 62.582031 C 64.886719 66.371094 64.238281 70.019531 63.082031 73.378906 C 63.046875 73.449219 63.046875 73.519531 63.011719 73.59375 C 58.390625 86.210938 46.195312 95.503906 32.339844 95.683594 L 1.339844 95.683594 L 1.339844 29.445312 L 32.316406 29.445312 C 46.265625 29.625 58.464844 38.777344 62.972656 51.539062 Z M 62.972656 51.539062 "/></clipPath><clipPath id="95fa22207d"><path d="M 12.160156 46.011719 L 46.535156 46.011719 L 46.535156 78.890625 L 12.160156 78.890625 Z M 12.160156 46.011719 "/></clipPath><clipPath id="5cb5f154c1"><path d="M 1.339844 29.445312 L 64.886719 29.445312 L 64.886719 95.683594 L 1.339844 95.683594 Z M 1.339844 29.445312 "/></clipPath><clipPath id="00174d03cf"><path d="M 62.972656 51.539062 C 64.128906 54.921875 64.886719 58.792969 64.886719 62.582031 C 64.886719 66.371094 64.238281 70.019531 63.082031 73.378906 C 63.046875 73.449219 63.046875 73.519531 63.011719 73.59375 C 58.390625 86.210938 46.195312 95.503906 32.339844 95.683594 L 1.339844 95.683594 L 1.339844 29.445312 L 32.316406 29.445312 C 46.265625 29.625 58.464844 38.777344 62.972656 51.539062 Z M 62.972656 51.539062 "/></clipPath><linearGradient x1="0.000440264" gradientTransform="matrix(0,0.248233,-0.248233,0,64.886787,29.446838)" y1="128" x2="266.829003" gradientUnits="userSpaceOnUse" y2="128" id="1b1aeb6cec"><stop style="stop-color:#ff5757;stop-opacity:1;" offset="0"/><stop style="stop-color:#ff5758;stop-opacity:1;" offset="0.00390625"/><stop style="stop-color:#fe5758;stop-opacity:1;" offset="0.0078125"/><stop style="stop-color:#fe5759;stop-opacity:1;" offset="0.0117187"/><stop style="stop-color:#fd575a;stop-opacity:1;" offset="0.015625"/><stop style="stop-color:#fd575a;stop-opacity:1;" offset="0.0195312"/><stop style="stop-color:#fc575b;stop-opacity:1;" offset="0.0234375"/><stop style="stop-color:#fc575c;stop-opacity:1;" offset="0.0273438"/><stop style="stop-color:#fb575c;stop-opacity:1;" offset="0.03125"/><stop style="stop-color:#fb575d;stop-opacity:1;" offset="0.0351563"/><stop style="stop-color:#fb575e;stop-opacity:1;" offset="0.0390625"/><stop style="stop-color:#fa575e;stop-opacity:1;" offset="0.0429688"/><stop style="stop-color:#fa575f;stop-opacity:1;" offset="0.046875"/><stop style="stop-color:#f9575f;stop-opacity:1;" offset="0.0507813"/><stop style="stop-color:#f95760;stop-opacity:1;" offset="0.0546875"/><stop style="stop-color:#f85761;stop-opacity:1;" offset="0.0585938"/><stop style="stop-color:#f85761;stop-opacity:1;" offset="0.0625"/><stop style="stop-color:#f75762;stop-opacity:1;" offset="0.0664062"/><stop style="stop-color:#f75763;stop-opacity:1;" offset="0.0703125"/><stop style="stop-color:#f65763;stop-opacity:1;" offset="0.0742188"/><stop style="stop-color:#f65764;stop-opacity:1;" offset="0.078125"/><stop style="stop-color:#f65765;stop-opacity:1;" offset="0.0820312"/><stop style="stop-color:#f55765;stop-opacity:1;" offset="0.0859375"/><stop style="stop-color:#f55766;stop-opacity:1;" offset="0.0898438"/><stop style="stop-color:#f45767;stop-opacity:1;" offset="0.09375"/><stop style="stop-color:#f45667;stop-opacity:1;" offset="0.0976562"/><stop style="stop-color:#f35668;stop-opacity:1;" offset="0.101562"/><stop style="stop-color:#f35669;stop-opacity:1;" offset="0.105469"/><stop style="stop-color:#f25669;stop-opacity:1;" offset="0.109375"/><stop style="stop-color:#f2566a;stop-opacity:1;" offset="0.113281"/><stop style="stop-color:#f2566b;stop-opacity:1;" offset="0.117188"/><stop style="stop-color:#f1566b;stop-opacity:1;" offset="0.121094"/><stop style="stop-color:#f1566c;stop-opacity:1;" offset="0.125"/><stop style="stop-color:#f0566d;stop-opacity:1;" offset="0.128906"/><stop style="stop-color:#f0566d;stop-opacity:1;" offset="0.132812"/><stop style="stop-color:#ef566e;stop-opacity:1;" offset="0.136719"/><stop style="stop-color:#ef566f;stop-opacity:1;" offset="0.140625"/><stop style="stop-color:#ee566f;stop-opacity:1;" offset="0.144531"/><stop style="stop-color:#ee5670;stop-opacity:1;" offset="0.148437"/><stop style="stop-color:#ed5671;stop-opacity:1;" offset="0.152344"/><stop style="stop-color:#ed5671;stop-opacity:1;" offset="0.15625"/><stop style="stop-color:#ed5672;stop-opacity:1;" offset="0.160156"/><stop style="stop-color:#ec5673;stop-opacity:1;" offset="0.164062"/><stop style="stop-color:#ec5673;stop-opacity:1;" offset="0.167969"/><stop style="stop-color:#eb5674;stop-opacity:1;" offset="0.171875"/><stop style="stop-color:#eb5674;stop-opacity:1;" offset="0.175781"/><stop style="stop-color:#ea5675;stop-opacity:1;" offset="0.179687"/><stop style="stop-color:#ea5676;stop-opacity:1;" offset="0.183594"/><stop style="stop-color:#e95676;stop-opacity:1;" offset="0.1875"/><stop style="stop-color:#e95677;stop-opacity:1;" offset="0.191406"/><stop style="stop-color:#e95678;stop-opacity:1;" offset="0.195312"/><stop style="stop-color:#e85678;stop-opacity:1;" offset="0.199219"/><stop style="stop-color:#e85679;stop-opacity:1;" offset="0.203125"/><stop style="stop-color:#e7567a;stop-opacity:1;" offset="0.207031"/><stop style="stop-color:#e7567a;stop-opacity:1;" offset="0.210937"/><stop style="stop-color:#e6567b;stop-opacity:1;" offset="0.214844"/><stop style="stop-color:#e6567c;stop-opacity:1;" offset="0.21875"/><stop style="stop-color:#e5567c;stop-opacity:1;" offset="0.222656"/><stop style="stop-color:#e5567d;stop-opacity:1;" offset="0.226562"/><stop style="stop-color:#e4567e;stop-opacity:1;" offset="0.230469"/><stop style="stop-color:#e4567e;stop-opacity:1;" offset="0.234375"/><stop style="stop-color:#e4567f;stop-opacity:1;" offset="0.238281"/><stop style="stop-color:#e35680;stop-opacity:1;" offset="0.242187"/><stop style="stop-color:#e35680;stop-opacity:1;" offset="0.246094"/><stop style="stop-color:#e25681;stop-opacity:1;" offset="0.25"/><stop style="stop-color:#e25682;stop-opacity:1;" offset="0.253906"/><stop style="stop-color:#e15682;stop-opacity:1;" offset="0.257812"/><stop style="stop-color:#e15683;stop-opacity:1;" offset="0.261719"/><stop style="stop-color:#e05684;stop-opacity:1;" offset="0.265625"/><stop style="stop-color:#e05684;stop-opacity:1;" offset="0.269531"/><stop style="stop-color:#e05685;stop-opacity:1;" offset="0.273437"/><stop style="stop-color:#df5686;stop-opacity:1;" offset="0.277344"/><stop style="stop-color:#df5686;stop-opacity:1;" offset="0.28125"/><stop style="stop-color:#de5687;stop-opacity:1;" offset="0.285156"/><stop style="stop-color:#de5688;stop-opacity:1;" offset="0.289062"/><stop style="stop-color:#dd5688;stop-opacity:1;" offset="0.292969"/><stop style="stop-color:#dd5689;stop-opacity:1;" offset="0.296875"/><stop style="stop-color:#dc5589;stop-opacity:1;" offset="0.300781"/><stop style="stop-color:#dc558a;stop-opacity:1;" offset="0.304687"/><stop style="stop-color:#dc558b;stop-opacity:1;" offset="0.308594"/><stop style="stop-color:#db558b;stop-opacity:1;" offset="0.3125"/><stop style="stop-color:#db558c;stop-opacity:1;" offset="0.316406"/><stop style="stop-color:#da558d;stop-opacity:1;" offset="0.320312"/><stop style="stop-color:#da558d;stop-opacity:1;" offset="0.324219"/><stop style="stop-color:#d9558e;stop-opacity:1;" offset="0.328125"/><stop style="stop-color:#d9558f;stop-opacity:1;" offset="0.332031"/><stop style="stop-color:#d8558f;stop-opacity:1;" offset="0.335937"/><stop style="stop-color:#d85590;stop-opacity:1;" offset="0.339844"/><stop style="stop-color:#d75591;stop-opacity:1;" offset="0.34375"/><stop style="stop-color:#d75591;stop-opacity:1;" offset="0.347656"/><stop style="stop-color:#d75592;stop-opacity:1;" offset="0.351562"/><stop style="stop-color:#d65593;stop-opacity:1;" offset="0.355469"/><stop style="stop-color:#d65593;stop-opacity:1;" offset="0.359375"/><stop style="stop-color:#d55594;stop-opacity:1;" offset="0.363281"/><stop style="stop-color:#d55595;stop-opacity:1;" offset="0.367187"/><stop style="stop-color:#d45595;stop-opacity:1;" offset="0.371094"/><stop style="stop-color:#d45596;stop-opacity:1;" offset="0.375"/><stop style="stop-color:#d35597;stop-opacity:1;" offset="0.378906"/><stop style="stop-color:#d35597;stop-opacity:1;" offset="0.382812"/><stop style="stop-color:#d35598;stop-opacity:1;" offset="0.386719"/><stop style="stop-color:#d25599;stop-opacity:1;" offset="0.390625"/><stop style="stop-color:#d25599;stop-opacity:1;" offset="0.394531"/><stop style="stop-color:#d1559a;stop-opacity:1;" offset="0.398437"/><stop style="stop-color:#d1559b;stop-opacity:1;" offset="0.402344"/><stop style="stop-color:#d0559b;stop-opacity:1;" offset="0.40625"/><stop style="stop-color:#d0559c;stop-opacity:1;" offset="0.410156"/><stop style="stop-color:#cf559d;stop-opacity:1;" offset="0.414062"/><stop style="stop-color:#cf559d;stop-opacity:1;" offset="0.417969"/><stop style="stop-color:#ce559e;stop-opacity:1;" offset="0.421875"/><stop style="stop-color:#ce559f;stop-opacity:1;" offset="0.425781"/><stop style="stop-color:#ce559f;stop-opacity:1;" offset="0.429687"/><stop style="stop-color:#cd55a0;stop-opacity:1;" offset="0.433594"/><stop style="stop-color:#cd55a0;stop-opacity:1;" offset="0.4375"/><stop style="stop-color:#cc55a1;stop-opacity:1;" offset="0.441406"/><stop style="stop-color:#cc55a2;stop-opacity:1;" offset="0.445312"/><stop style="stop-color:#cb55a2;stop-opacity:1;" offset="0.449219"/><stop style="stop-color:#cb55a3;stop-opacity:1;" offset="0.453125"/><stop style="stop-color:#ca55a4;stop-opacity:1;" offset="0.457031"/><stop style="stop-color:#ca55a4;stop-opacity:1;" offset="0.460937"/><stop style="stop-color:#ca55a5;stop-opacity:1;" offset="0.464844"/><stop style="stop-color:#c955a6;stop-opacity:1;" offset="0.46875"/><stop style="stop-color:#c955a6;stop-opacity:1;" offset="0.472656"/><stop style="stop-color:#c855a7;stop-opacity:1;" offset="0.476562"/><stop style="stop-color:#c855a8;stop-opacity:1;" offset="0.480469"/><stop style="stop-color:#c755a8;stop-opacity:1;" offset="0.484375"/><stop style="stop-color:#c755a9;stop-opacity:1;" offset="0.488281"/><stop style="stop-color:#c655aa;stop-opacity:1;" offset="0.492187"/><stop style="stop-color:#c655aa;stop-opacity:1;" offset="0.496094"/><stop style="stop-color:#c555ab;stop-opacity:1;" offset="0.5"/><stop style="stop-color:#c555ac;stop-opacity:1;" offset="0.503906"/><stop style="stop-color:#c554ac;stop-opacity:1;" offset="0.507812"/><stop style="stop-color:#c454ad;stop-opacity:1;" offset="0.511719"/><stop style="stop-color:#c454ae;stop-opacity:1;" offset="0.515625"/><stop style="stop-color:#c354ae;stop-opacity:1;" offset="0.519531"/><stop style="stop-color:#c354af;stop-opacity:1;" offset="0.523437"/><stop style="stop-color:#c254b0;stop-opacity:1;" offset="0.527344"/><stop style="stop-color:#c254b0;stop-opacity:1;" offset="0.53125"/><stop style="stop-color:#c154b1;stop-opacity:1;" offset="0.535156"/><stop style="stop-color:#c154b2;stop-opacity:1;" offset="0.539062"/><stop style="stop-color:#c154b2;stop-opacity:1;" offset="0.542969"/><stop style="stop-color:#c054b3;stop-opacity:1;" offset="0.546875"/><stop style="stop-color:#c054b4;stop-opacity:1;" offset="0.550781"/><stop style="stop-color:#bf54b4;stop-opacity:1;" offset="0.554687"/><stop style="stop-color:#bf54b5;stop-opacity:1;" offset="0.558594"/><stop style="stop-color:#be54b5;stop-opacity:1;" offset="0.5625"/><stop style="stop-color:#be54b6;stop-opacity:1;" offset="0.566406"/><stop style="stop-color:#bd54b7;stop-opacity:1;" offset="0.570312"/><stop style="stop-color:#bd54b7;stop-opacity:1;" offset="0.574219"/><stop style="stop-color:#bd54b8;stop-opacity:1;" offset="0.578125"/><stop style="stop-color:#bc54b9;stop-opacity:1;" offset="0.582031"/><stop style="stop-color:#bc54b9;stop-opacity:1;" offset="0.585937"/><stop style="stop-color:#bb54ba;stop-opacity:1;" offset="0.589844"/><stop style="stop-color:#bb54bb;stop-opacity:1;" offset="0.59375"/><stop style="stop-color:#ba54bb;stop-opacity:1;" offset="0.597656"/><stop style="stop-color:#ba54bc;stop-opacity:1;" offset="0.601562"/><stop style="stop-color:#b954bd;stop-opacity:1;" offset="0.605469"/><stop style="stop-color:#b954bd;stop-opacity:1;" offset="0.609375"/><stop style="stop-color:#b854be;stop-opacity:1;" offset="0.613281"/><stop style="stop-color:#b854bf;stop-opacity:1;" offset="0.617187"/><stop style="stop-color:#b854bf;stop-opacity:1;" offset="0.621094"/><stop style="stop-color:#b754c0;stop-opacity:1;" offset="0.625"/><stop style="stop-color:#b754c1;stop-opacity:1;" offset="0.628906"/><stop style="stop-color:#b654c1;stop-opacity:1;" offset="0.632812"/><stop style="stop-color:#b654c2;stop-opacity:1;" offset="0.636719"/><stop style="stop-color:#b554c3;stop-opacity:1;" offset="0.640625"/><stop style="stop-color:#b554c3;stop-opacity:1;" offset="0.644531"/><stop style="stop-color:#b454c4;stop-opacity:1;" offset="0.648437"/><stop style="stop-color:#b454c5;stop-opacity:1;" offset="0.652344"/><stop style="stop-color:#b454c5;stop-opacity:1;" offset="0.65625"/><stop style="stop-color:#b354c6;stop-opacity:1;" offset="0.660156"/><stop style="stop-color:#b354c7;stop-opacity:1;" offset="0.664062"/><stop style="stop-color:#b254c7;stop-opacity:1;" offset="0.667969"/><stop style="stop-color:#b254c8;stop-opacity:1;" offset="0.671875"/><stop style="stop-color:#b154c9;stop-opacity:1;" offset="0.675781"/><stop style="stop-color:#b154c9;stop-opacity:1;" offset="0.679687"/><stop style="stop-color:#b054ca;stop-opacity:1;" offset="0.683594"/><stop style="stop-color:#b054ca;stop-opacity:1;" offset="0.6875"/><stop style="stop-color:#af54cb;stop-opacity:1;" offset="0.691406"/><stop style="stop-color:#af54cc;stop-opacity:1;" offset="0.695312"/><stop style="stop-color:#af54cc;stop-opacity:1;" offset="0.699219"/><stop style="stop-color:#ae54cd;stop-opacity:1;" offset="0.703125"/><stop style="stop-color:#ae54ce;stop-opacity:1;" offset="0.707031"/><stop style="stop-color:#ad54ce;stop-opacity:1;" offset="0.710937"/><stop style="stop-color:#ad53cf;stop-opacity:1;" offset="0.714844"/><stop style="stop-color:#ac53d0;stop-opacity:1;" offset="0.71875"/><stop style="stop-color:#ac53d0;stop-opacity:1;" offset="0.722656"/><stop style="stop-color:#ab53d1;stop-opacity:1;" offset="0.726562"/><stop style="stop-color:#ab53d2;stop-opacity:1;" offset="0.730469"/><stop style="stop-color:#ab53d2;stop-opacity:1;" offset="0.734375"/><stop style="stop-color:#aa53d3;stop-opacity:1;" offset="0.738281"/><stop style="stop-color:#aa53d4;stop-opacity:1;" offset="0.742187"/><stop style="stop-color:#a953d4;stop-opacity:1;" offset="0.746094"/><stop style="stop-color:#a953d5;stop-opacity:1;" offset="0.75"/><stop style="stop-color:#a853d6;stop-opacity:1;" offset="0.753906"/><stop style="stop-color:#a853d6;stop-opacity:1;" offset="0.757812"/><stop style="stop-color:#a753d7;stop-opacity:1;" offset="0.761719"/><stop style="stop-color:#a753d8;stop-opacity:1;" offset="0.765625"/><stop style="stop-color:#a653d8;stop-opacity:1;" offset="0.769531"/><stop style="stop-color:#a653d9;stop-opacity:1;" offset="0.773437"/><stop style="stop-color:#a653da;stop-opacity:1;" offset="0.777344"/><stop style="stop-color:#a553da;stop-opacity:1;" offset="0.78125"/><stop style="stop-color:#a553db;stop-opacity:1;" offset="0.785156"/><stop style="stop-color:#a453dc;stop-opacity:1;" offset="0.789062"/><stop style="stop-color:#a453dc;stop-opacity:1;" offset="0.792969"/><stop style="stop-color:#a353dd;stop-opacity:1;" offset="0.796875"/><stop style="stop-color:#a353de;stop-opacity:1;" offset="0.800781"/><stop style="stop-color:#a253de;stop-opacity:1;" offset="0.804687"/><stop style="stop-color:#a253df;stop-opacity:1;" offset="0.808594"/><stop style="stop-color:#a253df;stop-opacity:1;" offset="0.8125"/><stop style="stop-color:#a153e0;stop-opacity:1;" offset="0.816406"/><stop style="stop-color:#a153e1;stop-opacity:1;" offset="0.820312"/><stop style="stop-color:#a053e1;stop-opacity:1;" offset="0.824219"/><stop style="stop-color:#a053e2;stop-opacity:1;" offset="0.828125"/><stop style="stop-color:#9f53e3;stop-opacity:1;" offset="0.832031"/><stop style="stop-color:#9f53e3;stop-opacity:1;" offset="0.835937"/><stop style="stop-color:#9e53e4;stop-opacity:1;" offset="0.839844"/><stop style="stop-color:#9e53e5;stop-opacity:1;" offset="0.84375"/><stop style="stop-color:#9e53e5;stop-opacity:1;" offset="0.847656"/><stop style="stop-color:#9d53e6;stop-opacity:1;" offset="0.851562"/><stop style="stop-color:#9d53e7;stop-opacity:1;" offset="0.855469"/><stop style="stop-color:#9c53e7;stop-opacity:1;" offset="0.859375"/><stop style="stop-color:#9c53e8;stop-opacity:1;" offset="0.863281"/><stop style="stop-color:#9b53e9;stop-opacity:1;" offset="0.867187"/><stop style="stop-color:#9b53e9;stop-opacity:1;" offset="0.871094"/><stop style="stop-color:#9a53ea;stop-opacity:1;" offset="0.875"/><stop style="stop-color:#9a53eb;stop-opacity:1;" offset="0.878906"/><stop style="stop-color:#9953eb;stop-opacity:1;" offset="0.882812"/><stop style="stop-color:#9953ec;stop-opacity:1;" offset="0.886719"/><stop style="stop-color:#9953ed;stop-opacity:1;" offset="0.890625"/><stop style="stop-color:#9853ed;stop-opacity:1;" offset="0.894531"/><stop style="stop-color:#9853ee;stop-opacity:1;" offset="0.898437"/><stop style="stop-color:#9753ef;stop-opacity:1;" offset="0.902344"/><stop style="stop-color:#9753ef;stop-opacity:1;" offset="0.90625"/><stop style="stop-color:#9653f0;stop-opacity:1;" offset="0.910156"/><stop style="stop-color:#9653f1;stop-opacity:1;" offset="0.914062"/><stop style="stop-color:#9553f1;stop-opacity:1;" offset="0.917969"/><stop style="stop-color:#9552f2;stop-opacity:1;" offset="0.921875"/><stop style="stop-color:#9552f3;stop-opacity:1;" offset="0.925781"/><stop style="stop-color:#9452f3;stop-opacity:1;" offset="0.929687"/><stop style="stop-color:#9452f4;stop-opacity:1;" offset="0.933594"/><stop style="stop-color:#9352f4;stop-opacity:1;" offset="0.9375"/><stop style="stop-color:#9352f5;stop-opacity:1;" offset="0.941406"/><stop style="stop-color:#9252f6;stop-opacity:1;" offset="0.945312"/><stop style="stop-color:#9252f6;stop-opacity:1;" offset="0.949219"/><stop style="stop-color:#9152f7;stop-opacity:1;" offset="0.953125"/><stop style="stop-color:#9152f8;stop-opacity:1;" offset="0.957031"/><stop style="stop-color:#9052f8;stop-opacity:1;" offset="0.960937"/><stop style="stop-color:#9052f9;stop-opacity:1;" offset="0.964844"/><stop style="stop-color:#9052fa;stop-opacity:1;" offset="0.96875"/><stop style="stop-color:#8f52fa;stop-opacity:1;" offset="0.972656"/><stop style="stop-color:#8f52fb;stop-opacity:1;" offset="0.976562"/><stop style="stop-color:#8e52fc;stop-opacity:1;" offset="0.980469"/><stop style="stop-color:#8e52fc;stop-opacity:1;" offset="0.984375"/><stop style="stop-color:#8d52fd;stop-opacity:1;" offset="0.988281"/><stop style="stop-color:#8d52fe;stop-opacity:1;" offset="0.992187"/><stop style="stop-color:#8c52fe;stop-opacity:1;" offset="0.996094"/><stop style="stop-color:#8c52ff;stop-opacity:1;" offset="1"/></linearGradient><clipPath id="66d7dc94b3"><path d="M 0.335938 47.046875 L 49.660156 47.046875 L 49.660156 96.367188 L 0.335938 96.367188 Z M 0.335938 47.046875 "/></clipPath></defs><g id="d385fdc1e2"><g clip-rule="nonzero" clip-path="url(#142db80526)"><g clip-rule="nonzero" clip-path="url(#2dfd432d67)"><path style=" stroke:none;fill-rule:nonzero;fill:#fffef0;fill-opacity:1;" d="M 64.886719 29.445312 L 64.886719 95.726562 L 1.339844 95.726562 L 1.339844 29.445312 Z M 64.886719 29.445312 "/></g></g><g clip-rule="nonzero" clip-path="url(#95fa22207d)"><path style=" stroke:none;fill-rule:nonzero;fill:#003934;fill-opacity:1;" d="M 46.070312 64.492188 L 33.957031 64.492188 L 42.144531 72.679688 L 39.441406 75.386719 L 31.097656 67.039062 L 31.097656 78.890625 L 27.273438 78.890625 L 27.273438 67.183594 L 18.582031 75.875 L 15.699219 72.992188 L 24.203125 64.492188 L 12.175781 64.492188 L 12.175781 60.410156 L 24.472656 60.410156 L 16.195312 52.132812 L 18.898438 49.425781 L 27.273438 57.804688 L 27.273438 46.011719 L 31.097656 46.011719 L 31.097656 57.589844 L 39.664062 49.019531 L 42.546875 51.910156 L 34.046875 60.410156 L 46.070312 60.410156 Z M 46.070312 64.492188 "/></g><g clip-rule="nonzero" clip-path="url(#5cb5f154c1)"><g clip-rule="nonzero" clip-path="url(#00174d03cf)"><path style=" stroke:none;fill-rule:nonzero;fill:url(#1b1aeb6cec);" d="M 64.886719 29.445312 L 1.339844 29.445312 L 1.339844 95.683594 L 64.886719 95.683594 Z M 64.886719 29.445312 "/></g></g><g style="fill:#244357;fill-opacity:1;"><g transform="translate(74.053743, 80.616146)"><path style="stroke:none" d="M 18.921875 0 L 16.609375 0 C 13.734375 0 11.332031 -0.847656 9.40625 -2.546875 C 7.476562 -4.242188 6.515625 -6.8125 6.515625 -10.25 L 6.515625 -41.703125 C 6.515625 -42.648438 6.96875 -43.125 7.875 -43.125 L 10.03125 -43.125 C 10.976562 -43.125 11.453125 -42.648438 11.453125 -41.703125 L 11.453125 -10.875 C 11.453125 -8.570312 12.046875 -6.890625 13.234375 -5.828125 C 14.421875 -4.773438 15.882812 -4.25 17.625 -4.25 L 18.921875 -4.25 L 19.890625 -3.234375 L 19.890625 -1.015625 Z M 18.921875 0 "/></g></g><g style="fill:#244357;fill-opacity:1;"><g transform="translate(89.919842, 80.616146)"><path style="stroke:none" d="M 11.109375 -32.078125 C 9.140625 -32.078125 8.15625 -33.054688 8.15625 -35.015625 C 8.15625 -36.984375 9.140625 -37.96875 11.109375 -37.96875 C 13.066406 -37.96875 14.046875 -36.984375 14.046875 -35.015625 C 14.046875 -33.054688 13.066406 -32.078125 11.109375 -32.078125 Z M 19.953125 -4.25 L 21.59375 -4.25 L 22.546875 -3.234375 L 22.546875 -1.015625 L 21.59375 0 L 20.171875 0 C 18.359375 0 16.753906 -0.316406 15.359375 -0.953125 C 13.960938 -1.597656 12.847656 -2.660156 12.015625 -4.140625 C 11.140625 -2.742188 9.957031 -1.703125 8.46875 -1.015625 C 6.976562 -0.335938 5.304688 0 3.453125 0 L 0 0 L -1.015625 -1.015625 L -1.015625 -3.234375 L 0 -4.25 L 2.4375 -4.25 C 4.363281 -4.25 5.875 -4.773438 6.96875 -5.828125 C 8.0625 -6.890625 8.609375 -8.570312 8.609375 -10.875 L 8.609375 -23.625 C 8.609375 -24.570312 9.082031 -25.046875 10.03125 -25.046875 L 12.125 -25.046875 C 13.070312 -25.046875 13.546875 -24.570312 13.546875 -23.625 L 13.546875 -11.84375 C 13.546875 -9.050781 14.117188 -7.085938 15.265625 -5.953125 C 16.421875 -4.816406 17.984375 -4.25 19.953125 -4.25 Z M 19.953125 -4.25 "/></g></g><g style="fill:#244357;fill-opacity:1;"><g transform="translate(108.449253, 80.616146)"><path style="stroke:none" d="M 4.421875 0 L 0 0 L -1.015625 -1.015625 L -1.015625 -3.234375 L 0 -4.25 L 3.40625 -4.25 C 5.175781 -4.25 6.644531 -4.773438 7.8125 -5.828125 C 8.988281 -6.890625 9.578125 -8.570312 9.578125 -10.875 L 9.578125 -23.625 C 9.578125 -24.570312 10.050781 -25.046875 11 -25.046875 L 13.140625 -25.046875 C 14.046875 -25.046875 14.5 -24.570312 14.5 -23.625 L 14.5 -10.25 C 14.5 -6.8125 13.535156 -4.242188 11.609375 -2.546875 C 9.691406 -0.847656 7.296875 0 4.421875 0 Z M 4.3125 12.6875 C 2.414062 12.6875 1.46875 11.765625 1.46875 9.921875 C 1.46875 8.066406 2.414062 7.140625 4.3125 7.140625 C 6.125 7.140625 7.03125 8.066406 7.03125 9.921875 C 7.03125 11.765625 6.125 12.6875 4.3125 12.6875 Z M 13.765625 12.6875 C 11.921875 12.6875 11 11.765625 11 9.921875 C 11 8.066406 11.921875 7.140625 13.765625 7.140625 C 15.617188 7.140625 16.546875 8.066406 16.546875 9.921875 C 16.546875 11.765625 15.617188 12.6875 13.765625 12.6875 Z M 13.765625 12.6875 "/></g></g><g style="fill:#244357;fill-opacity:1;"><g transform="translate(123.805365, 80.616146)"><path style="stroke:none" d="M 20 -29.015625 C 22.945312 -29.015625 25.582031 -28.367188 27.90625 -27.078125 C 30.226562 -25.796875 32.050781 -24.03125 33.375 -21.78125 C 34.695312 -19.539062 35.359375 -17.003906 35.359375 -14.171875 L 35.359375 -3.859375 C 35.359375 -1.023438 35.046875 1.617188 34.421875 4.078125 C 33.796875 6.535156 32.8125 8.6875 31.46875 10.53125 C 30.132812 12.382812 28.367188 13.832031 26.171875 14.875 C 23.984375 15.914062 21.320312 16.4375 18.1875 16.4375 C 16.863281 16.4375 15.460938 16.332031 13.984375 16.125 C 12.515625 15.914062 10.835938 15.453125 8.953125 14.734375 C 8.535156 14.578125 8.234375 14.359375 8.046875 14.078125 C 7.859375 13.796875 7.765625 13.503906 7.765625 13.203125 L 7.765625 11.109375 C 7.765625 10.347656 8.160156 10.117188 8.953125 10.421875 C 10.953125 11.140625 12.671875 11.617188 14.109375 11.859375 C 15.546875 12.109375 16.90625 12.234375 18.1875 12.234375 C 20.757812 12.234375 22.847656 11.800781 24.453125 10.9375 C 26.054688 10.070312 27.289062 8.890625 28.15625 7.390625 C 29.03125 5.898438 29.632812 4.191406 29.96875 2.265625 C 30.3125 0.335938 30.484375 -1.703125 30.484375 -3.859375 L 30.484375 -4.984375 C 29.390625 -3.472656 27.847656 -2.140625 25.859375 -0.984375 C 23.878906 0.160156 21.773438 0.734375 19.546875 0.734375 C 16.640625 0.734375 14.050781 0.0820312 11.78125 -1.21875 C 9.519531 -2.519531 7.753906 -4.300781 6.484375 -6.5625 C 5.222656 -8.832031 4.59375 -11.367188 4.59375 -14.171875 C 4.59375 -17.003906 5.257812 -19.539062 6.59375 -21.78125 C 7.9375 -24.03125 9.769531 -25.796875 12.09375 -27.078125 C 14.414062 -28.367188 17.050781 -29.015625 20 -29.015625 Z M 20 -3.515625 C 21.738281 -3.515625 23.398438 -3.9375 24.984375 -4.78125 C 26.578125 -5.632812 27.890625 -6.757812 28.921875 -8.15625 C 29.960938 -9.550781 30.484375 -11.046875 30.484375 -12.640625 L 30.484375 -14.171875 C 30.484375 -16.171875 30.03125 -17.972656 29.125 -19.578125 C 28.21875 -21.179688 26.96875 -22.453125 25.375 -23.390625 C 23.789062 -24.335938 22 -24.8125 20 -24.8125 C 18 -24.8125 16.195312 -24.335938 14.59375 -23.390625 C 12.988281 -22.453125 11.734375 -21.179688 10.828125 -19.578125 C 9.921875 -17.972656 9.46875 -16.171875 9.46875 -14.171875 C 9.46875 -12.160156 9.921875 -10.351562 10.828125 -8.75 C 11.734375 -7.144531 12.988281 -5.867188 14.59375 -4.921875 C 16.195312 -3.984375 18 -3.515625 20 -3.515625 Z M 20 -3.515625 "/></g></g><g style="fill:#244357;fill-opacity:1;"><g transform="translate(160.014646, 80.616146)"><path style="stroke:none" d="M 10.03125 0 L 7.9375 0 C 6.988281 0 6.515625 -0.472656 6.515625 -1.421875 L 6.515625 -41.703125 C 6.515625 -42.648438 6.988281 -43.125 7.9375 -43.125 L 10.03125 -43.125 C 11.007812 -43.125 11.5 -42.648438 11.5 -41.703125 L 11.5 -1.421875 C 11.5 -0.472656 11.007812 0 10.03125 0 Z M 10.03125 0 "/></g></g><g style="fill:#244357;fill-opacity:1;"><g transform="translate(174.974098, 80.616146)"><path style="stroke:none" d="M 17.171875 -29.0625 C 20.046875 -29.0625 22.613281 -28.421875 24.875 -27.140625 C 27.144531 -25.859375 28.941406 -24.117188 30.265625 -21.921875 C 31.585938 -19.734375 32.25 -17.257812 32.25 -14.5 L 32.125 -1.421875 C 32.125 -0.472656 31.65625 0 30.71875 0 L 4.53125 0 C 3.582031 0 3.109375 -0.472656 3.109375 -1.421875 L 3.109375 -2.828125 C 3.109375 -3.773438 3.582031 -4.25 4.53125 -4.25 L 27.375 -4.25 L 27.375 -14.28125 C 27.375 -16.320312 26.921875 -18.125 26.015625 -19.6875 C 25.109375 -21.257812 23.890625 -22.503906 22.359375 -23.421875 C 20.828125 -24.347656 19.097656 -24.8125 17.171875 -24.8125 C 15.691406 -24.851562 14.140625 -24.75 12.515625 -24.5 C 10.898438 -24.257812 9.109375 -23.757812 7.140625 -23 C 6.347656 -22.695312 5.953125 -22.925781 5.953125 -23.6875 L 5.953125 -25.78125 C 5.953125 -26.082031 6.046875 -26.382812 6.234375 -26.6875 C 6.421875 -26.988281 6.722656 -27.21875 7.140625 -27.375 C 9.023438 -28.09375 10.789062 -28.550781 12.4375 -28.75 C 14.082031 -28.957031 15.660156 -29.0625 17.171875 -29.0625 Z M 17.171875 -29.0625 "/></g></g><g clip-rule="nonzero" clip-path="url(#66d7dc94b3)"><path style=" stroke:none;fill-rule:nonzero;fill:#ffffff;fill-opacity:1;" d="M 33.296875 91.367188 C 25.195312 92.636719 17.003906 92.023438 8.847656 91.742188 C 7.523438 91.695312 6.574219 91.367188 5.90625 90.804688 C 5.902344 90.804688 5.898438 90.800781 5.898438 90.796875 C 5.339844 90.128906 5.007812 89.179688 4.964844 87.855469 C 4.679688 79.703125 4.066406 71.511719 5.339844 63.40625 C 6.425781 56.460938 12.203125 51.761719 19.21875 51.570312 C 24.539062 51.421875 29.371094 54.050781 32.03125 58.242188 C 29.910156 58.109375 27.703125 58.308594 25.449219 58.878906 C 24.769531 59.046875 24.109375 59.261719 23.46875 59.515625 C 17.828125 61.730469 13.554688 66.964844 11.988281 72.945312 L 11.988281 72.949219 C 11.242188 75.789062 11.105469 78.792969 11.722656 81.722656 C 11.921875 82.679688 12.238281 83.445312 12.765625 83.941406 C 13.269531 84.46875 14.027344 84.78125 14.980469 84.984375 C 17.910156 85.597656 20.917969 85.464844 23.757812 84.714844 L 23.761719 84.714844 C 29.742188 83.148438 34.976562 78.875 37.191406 73.242188 C 37.441406 72.597656 37.65625 71.9375 37.828125 71.261719 C 38.394531 69.007812 38.597656 66.792969 38.460938 64.675781 C 42.65625 67.335938 45.285156 72.164062 45.136719 77.488281 C 44.945312 84.503906 40.242188 90.277344 33.296875 91.367188 Z M 31.695312 74.242188 C 30.402344 76.148438 28.652344 77.773438 26.523438 78.925781 C 25.464844 79.496094 24.492188 79.9375 23.597656 80.246094 C 22.746094 80.542969 21.835938 80.613281 20.949219 80.472656 C 20.867188 80.457031 20.785156 80.445312 20.707031 80.429688 C 18.457031 80.027344 16.675781 78.25 16.273438 76 C 16.261719 75.921875 16.246094 75.839844 16.234375 75.757812 C 16.089844 74.871094 16.160156 73.957031 16.457031 73.109375 C 16.769531 72.214844 17.210938 71.242188 17.78125 70.183594 C 18.933594 68.054688 20.554688 66.304688 22.464844 65.015625 C 23.714844 64.167969 25.09375 63.515625 26.539062 63.089844 C 28.875 62.394531 31.398438 62.269531 33.890625 62.8125 C 34.433594 65.308594 34.3125 67.828125 33.617188 70.164062 C 33.1875 71.617188 32.539062 72.992188 31.695312 74.242188 Z M 48.996094 72.441406 C 47.289062 66.003906 42.941406 61.363281 37.363281 59.339844 C 35.335938 53.757812 30.703125 49.414062 24.261719 47.710938 C 16.339844 45.609375 8.839844 48.652344 4.429688 54.769531 C 4.183594 54.082031 3.640625 53.613281 2.5 53.652344 C -0.113281 53.738281 0.601562 56.632812 0.574219 58.414062 C 0.542969 60.8125 0.527344 63.210938 0.511719 65.609375 C 0.46875 66.082031 0.441406 66.5625 0.425781 67.050781 C 0.25 72.488281 0.382812 77.9375 0.429688 83.378906 L 0.429688 83.394531 C 0.40625 85.761719 0.382812 88.128906 0.335938 90.496094 C 0.300781 92.605469 0.734375 94.046875 1.671875 94.964844 C 1.691406 94.992188 1.714844 95.011719 1.738281 95.035156 C 2.65625 95.96875 4.101562 96.402344 6.207031 96.367188 C 8.578125 96.324219 10.945312 96.296875 13.3125 96.277344 L 13.324219 96.277344 C 18.769531 96.324219 24.214844 96.453125 29.652344 96.28125 C 30.144531 96.261719 30.625 96.234375 31.09375 96.191406 C 35.273438 95.816406 38.964844 94.410156 41.929688 92.273438 C 48.054688 87.871094 51.097656 80.367188 48.996094 72.441406 "/></g></g></svg>